<?xml version="1.0" encoding="UTF-8" ?>
<!DOCTYPE svg PUBLIC "-//W3C//DTD SVG 1.1//EN" "http://www.w3.org/Graphics/SVG/1.1/DTD/svg11.dtd">
<svg width="370pt" height="150pt" viewBox="0 0 370 150" version="1.1" xmlns="http://www.w3.org/2000/svg">
<g id="#1e293bff">
<path fill="#1e293b" opacity="1.00" d=" M 60.25 14.27 C 64.45 9.68 71.07 8.47 77.03 8.78 C 82.22 8.97 87.70 10.72 91.07 14.89 C 94.76 19.35 95.57 25.35 95.63 30.94 C 95.69 39.87 95.60 48.81 95.66 57.74 C 92.40 57.77 89.15 57.80 85.90 57.83 C 85.69 54.62 84.62 51.23 86.04 48.15 C 87.25 44.91 86.65 41.37 86.78 37.99 C 86.62 32.87 87.32 27.51 85.42 22.63 C 82.37 14.53 68.74 14.35 65.42 22.32 C 63.92 25.66 63.96 29.41 63.91 33.00 C 63.97 62.35 63.90 91.70 63.95 121.06 C 63.97 125.67 64.85 131.24 69.30 133.67 C 74.21 136.11 81.56 135.72 84.65 130.62 C 87.37 125.90 86.64 120.21 86.78 114.99 C 86.55 110.43 87.52 105.63 85.69 101.28 C 84.76 98.47 85.76 95.48 85.89 92.62 C 89.14 92.64 92.40 92.67 95.66 92.72 C 95.57 102.49 95.74 112.27 95.59 122.04 C 95.45 127.72 94.22 133.87 89.99 137.97 C 85.53 142.32 78.90 143.28 72.93 142.84 C 67.66 142.53 62.19 140.41 59.06 135.97 C 55.70 131.40 55.09 125.53 55.06 120.03 C 55.05 90.67 55.06 61.32 55.05 31.97 C 55.04 25.78 55.83 18.99 60.25 14.27 Z" />
<path fill="#1e293b" opacity="1.00" d=" M 124.33 9.35 C 131.19 8.07 139.19 8.51 144.63 13.37 C 149.47 17.78 150.60 24.70 150.63 30.94 C 150.66 60.65 150.64 90.36 150.64 120.06 C 150.62 126.15 149.81 132.83 145.48 137.48 C 141.05 142.22 134.11 143.31 127.93 142.84 C 122.66 142.53 117.19 140.40 114.06 135.97 C 110.70 131.40 110.09 125.53 110.06 120.03 C 110.04 91.02 110.07 62.01 110.04 32.99 C 110.05 27.38 110.35 21.39 113.49 16.53 C 115.86 12.71 119.97 10.21 124.33 9.35 M 125.39 17.40 C 120.06 19.49 118.86 25.87 118.94 30.96 C 118.93 60.99 118.92 91.03 118.95 121.06 C 118.97 125.67 119.85 131.24 124.30 133.67 C 128.46 135.71 134.03 135.75 137.79 132.81 C 141.41 129.69 141.71 124.51 141.77 120.06 C 141.76 90.69 141.75 61.32 141.77 31.94 C 141.72 27.67 141.53 22.87 138.47 19.55 C 135.15 16.17 129.66 15.84 125.39 17.40 Z" />
<path fill="#1e293b" opacity="1.00" d=" M 9.06 9.94 C 19.40 9.94 29.74 9.92 40.09 9.95 C 39.40 12.53 38.70 15.10 37.98 17.67 C 31.30 17.64 24.62 17.64 17.94 17.66 C 17.93 38.24 17.93 58.81 17.94 79.39 C 22.51 79.44 27.07 79.39 31.64 79.40 C 30.96 81.93 30.29 84.46 29.63 86.99 C 25.74 87.16 21.84 87.12 17.94 87.14 C 17.93 102.76 17.93 118.38 17.94 134.01 C 25.32 134.04 32.71 134.01 40.09 134.04 C 39.41 136.61 38.71 139.18 38.00 141.75 C 28.36 141.76 18.71 141.73 9.07 141.76 C 9.04 97.82 9.06 53.88 9.06 9.94 Z" />
<path fill="#1e293b" opacity="1.00" d=" M 167.06 9.94 C 171.73 9.94 176.40 9.94 181.07 9.92 C 185.90 39.12 190.67 68.34 195.49 97.55 C 196.33 102.37 196.66 107.33 198.54 111.90 C 199.04 109.94 199.50 107.96 199.84 105.96 C 204.99 73.98 210.34 42.04 215.46 10.05 C 220.17 9.89 224.88 9.90 229.58 10.02 C 229.53 53.92 229.55 97.83 229.58 141.73 C 226.77 141.76 223.98 141.76 221.18 141.75 C 221.17 107.50 221.17 73.25 221.18 39.00 C 221.15 34.46 221.35 29.91 220.88 25.39 C 219.64 29.36 219.12 33.49 218.37 37.57 C 213.30 66.21 208.26 94.86 203.15 123.49 C 200.09 123.49 197.03 123.64 193.98 123.39 C 192.95 122.28 193.02 120.64 192.65 119.26 C 187.63 90.30 182.40 61.38 177.34 32.42 C 176.88 29.80 176.38 27.19 175.62 24.64 C 175.16 63.67 175.61 102.72 175.39 141.75 C 172.62 141.76 169.84 141.76 167.07 141.75 C 167.03 97.81 167.06 53.87 167.06 9.94 Z" />
<path fill="#1e293b" opacity="1.00" d=" M 245.06 9.94 C 248.01 9.92 250.97 9.92 253.93 9.94 C 253.93 53.88 253.95 97.81 253.92 141.75 C 250.97 141.76 248.02 141.76 245.07 141.75 C 245.04 97.82 245.06 53.88 245.06 9.94 Z" />
<path fill="#1e293b" opacity="1.00" d=" M 270.06 9.94 C 280.40 9.93 290.74 9.92 301.09 9.95 C 300.40 12.53 299.69 15.10 298.97 17.67 C 292.29 17.64 285.62 17.64 278.94 17.66 C 278.96 40.02 278.87 62.38 278.99 84.73 C 283.30 84.74 287.62 84.70 291.94 84.74 C 291.28 87.30 290.60 89.85 289.92 92.40 C 286.29 92.45 282.65 92.44 279.02 92.41 C 278.82 108.86 279.00 125.30 278.92 141.75 C 275.97 141.76 273.02 141.76 270.07 141.75 C 270.04 97.81 270.06 53.88 270.06 9.94 Z" />
<path fill="#1e293b" opacity="1.00" d=" M 313.16 10.03 C 316.11 9.94 319.07 9.92 322.03 9.91 C 326.09 30.81 330.12 51.72 334.18 72.62 C 335.08 77.03 335.49 81.60 337.40 85.73 C 337.93 83.70 338.45 81.66 338.86 79.60 C 343.27 56.40 347.87 33.24 352.27 10.03 C 355.24 9.94 358.21 9.92 361.18 9.93 C 354.89 40.09 348.50 70.23 342.15 100.37 C 341.44 103.87 341.61 107.45 341.61 111.00 C 341.65 121.25 341.60 131.49 341.63 141.74 C 338.68 141.75 335.72 141.76 332.77 141.75 C 332.71 129.81 332.76 117.87 332.75 105.93 C 332.78 101.58 331.54 97.38 330.69 93.15 C 324.83 65.44 319.04 37.73 313.16 10.03 Z" />
</g>
</svg>
